<?xml version="1.0" encoding="UTF-8"?>
<!--Generator: Apple Native CoreSVG 232.5-->
<!DOCTYPE svg
PUBLIC "-//W3C//DTD SVG 1.1//EN"
       "http://www.w3.org/Graphics/SVG/1.1/DTD/svg11.dtd">
<svg version="1.1" xmlns="http://www.w3.org/2000/svg" xmlns:xlink="http://www.w3.org/1999/xlink" width="23.5688" height="18.4523">
 <g>
  <rect height="18.4523" opacity="0" width="23.5688" x="0" y="0"/>
  <path d="M2.27744 18.4523L20.9269 18.4523C22.3087 18.4523 23.2075 17.5535 23.2075 16.1949L23.2075 2.28009C23.2075 0.921892 22.3087 0.0261915 20.9269 0.0261915L2.27744 0.0261915C0.905466 0.0261915 0 0.921892 0 2.28009L0 16.1949C0 17.5535 0.905466 18.4523 2.27744 18.4523ZM2.29962 16.4826C2.01507 16.4826 1.81931 16.2833 1.81931 16.0089L1.81931 15.0638C1.81931 14.8059 2.00841 14.6199 2.27298 14.6199L3.37127 14.6199C3.63584 14.6199 3.81828 14.8059 3.81828 15.0638L3.81828 16.0289C3.81828 16.2899 3.63584 16.4826 3.37127 16.4826ZM2.27298 13.3154C2.00841 13.3154 1.81931 13.1129 1.81931 12.8653L1.81931 11.9166C1.81931 11.6422 2.00175 11.4598 2.27298 11.4598L3.37127 11.4598C3.63584 11.4598 3.81828 11.6422 3.81828 11.9166L3.81828 12.8653C3.81828 13.1129 3.63584 13.3154 3.37127 13.3154ZM2.27298 10.1575C2.00841 10.1575 1.81931 9.96176 1.81931 9.71717L1.81931 8.76536C1.81931 8.49413 2.00175 8.31169 2.27298 8.31169L3.37127 8.31169C3.63584 8.31169 3.81828 8.49413 3.81828 8.76536L3.81828 9.71717C3.81828 9.96176 3.63584 10.1575 3.37127 10.1575ZM2.27298 7.02275C2.00841 7.02275 1.81931 6.82033 1.81931 6.5824L1.81931 5.62394C1.81931 5.35626 2.00175 5.16716 2.27298 5.16716L3.37127 5.16716C3.63584 5.16716 3.81828 5.35626 3.81828 5.62394L3.81828 6.5824C3.81828 6.82033 3.63584 7.02275 3.37127 7.02275ZM2.27298 3.84933C2.00841 3.84933 1.81931 3.65668 1.81931 3.41209L1.81931 2.46695C1.81931 2.17929 2.01507 1.98663 2.29962 1.98663L3.37127 1.98663C3.63584 1.98663 3.81828 2.17263 3.81828 2.4403L3.81828 3.41209C3.81828 3.65668 3.63584 3.84933 3.37127 3.84933ZM5.93726 16.4826C5.61944 16.4826 5.4095 16.2726 5.4095 15.9548L5.4095 10.749C5.4095 10.4379 5.61944 10.2279 5.93726 10.2279L17.2427 10.2279C17.5507 10.2279 17.7638 10.4379 17.7638 10.749L17.7638 15.9548C17.7638 16.2726 17.5507 16.4826 17.2427 16.4826ZM5.93726 8.25461C5.61944 8.25461 5.4095 8.05133 5.4095 7.73352L5.4095 2.50106C5.4095 2.18325 5.61944 1.98663 5.93726 1.98663L17.2427 1.98663C17.5507 1.98663 17.7638 2.18325 17.7638 2.50106L17.7638 7.73352C17.7638 8.05133 17.5507 8.25461 17.2427 8.25461ZM19.7989 16.4826C19.5344 16.4826 19.3519 16.2899 19.3519 16.0289L19.3519 15.0638C19.3519 14.8059 19.5344 14.6199 19.7989 14.6199L20.8972 14.6199C21.1715 14.6199 21.354 14.8059 21.354 15.0638L21.354 16.0089C21.354 16.2833 21.1649 16.4826 20.8706 16.4826ZM19.7989 13.3154C19.5344 13.3154 19.3519 13.1129 19.3519 12.8653L19.3519 11.9166C19.3519 11.6422 19.5344 11.4598 19.7989 11.4598L20.8972 11.4598C21.1715 11.4598 21.354 11.6422 21.354 11.9166L21.354 12.8653C21.354 13.1129 21.1715 13.3154 20.8972 13.3154ZM19.7989 10.1575C19.5344 10.1575 19.3519 9.96176 19.3519 9.71717L19.3519 8.76536C19.3519 8.49413 19.5344 8.31169 19.7989 8.31169L20.8972 8.31169C21.1715 8.31169 21.354 8.49413 21.354 8.76536L21.354 9.71717C21.354 9.96176 21.1715 10.1575 20.8972 10.1575ZM19.7989 7.02275C19.5344 7.02275 19.3519 6.82033 19.3519 6.5824L19.3519 5.62394C19.3519 5.35626 19.5344 5.16716 19.7989 5.16716L20.8972 5.16716C21.1715 5.16716 21.354 5.35626 21.354 5.62394L21.354 6.5824C21.354 6.82033 21.1715 7.02275 20.8972 7.02275ZM19.7989 3.84933C19.5344 3.84933 19.3519 3.65668 19.3519 3.41209L19.3519 2.4403C19.3519 2.17263 19.5344 1.98663 19.7989 1.98663L20.8706 1.98663C21.1649 1.98663 21.354 2.17929 21.354 2.46695L21.354 3.41209C21.354 3.65668 21.1715 3.84933 20.8972 3.84933Z" fill="#ffffff"/>
 </g>
</svg>
