<?xml version="1.0" encoding="UTF-8"?>
<!--Generator: Apple Native CoreSVG 232.5-->
<!DOCTYPE svg
PUBLIC "-//W3C//DTD SVG 1.1//EN"
       "http://www.w3.org/Graphics/SVG/1.1/DTD/svg11.dtd">
<svg version="1.1" xmlns="http://www.w3.org/2000/svg" xmlns:xlink="http://www.w3.org/1999/xlink" width="19.3038" height="18.9646">
 <g>
  <rect height="18.9646" opacity="0" width="19.3038" x="0" y="0"/>
  <path d="M17.7423 8.38128C18.4312 8.38128 18.9425 7.88152 18.9425 7.20601L18.9425 1.91031C18.9425 0.706149 18.2385 0.00886679 17.0344 0.00886679L11.6269 0.00886679C10.9478 0.00886679 10.4449 0.510387 10.4449 1.20232C10.4449 1.88804 10.9478 2.386 11.6269 2.386L12.3292 2.386L15.1695 2.17827L12.9857 4.23424L10.3071 6.90977C10.0785 7.13834 9.94357 7.42862 9.94357 7.7575C9.94357 8.4876 10.4691 8.99177 11.1961 8.99177C11.5143 8.99177 11.8165 8.88259 12.0384 8.65091L14.7042 5.95895L16.7699 3.7849L16.5556 6.59997L16.5556 7.20601C16.5556 7.88818 17.0668 8.38128 17.7423 8.38128ZM7.30894 18.9646C7.99776 18.9646 8.49087 18.4631 8.49087 17.7712C8.49087 17.0824 7.9911 16.5844 7.30894 16.5844L6.61329 16.5844L3.77293 16.7921L5.95009 14.7362L8.63539 12.0606C8.86396 11.8352 8.99222 11.5418 8.99222 11.2129C8.99222 10.4859 8.47338 9.98174 7.73973 9.98174C7.42151 9.98174 7.12592 10.0909 6.90401 10.3226L4.23158 13.0114L2.17251 15.1855L2.38024 12.3735L2.38024 11.7644C2.38024 11.0853 1.87562 10.5922 1.19345 10.5922C0.511286 10.5922 0 11.092 0 11.7644L0 17.0601C0 18.2674 0.697283 18.9646 1.90454 18.9646Z" fill="#ffffff"/>
 </g>
</svg>
