<?xml version="1.0" encoding="UTF-8"?>
<!--Generator: Apple Native CoreSVG 232.5-->
<!DOCTYPE svg
PUBLIC "-//W3C//DTD SVG 1.1//EN"
       "http://www.w3.org/Graphics/SVG/1.1/DTD/svg11.dtd">
<svg version="1.1" xmlns="http://www.w3.org/2000/svg" xmlns:xlink="http://www.w3.org/1999/xlink" width="23.4095" height="23.1079">
 <g>
  <rect height="23.1079" opacity="0" width="23.4095" x="0" y="0"/>
  <path d="M0.421993 12.4287L3.5501 15.2387C4.37519 15.9697 5.32197 15.4189 5.32197 14.4606L5.32197 12.7101L10.363 12.7101L10.363 17.7645L8.5966 17.7645C7.65738 17.7645 7.10965 18.7108 7.81228 19.5111L10.6222 22.6423C11.1229 23.2184 11.9111 23.2392 12.4171 22.6511L15.2203 19.5266C15.9514 18.7015 15.4005 17.7645 14.4422 17.7645L12.6949 17.7645L12.6949 12.7101L17.7262 12.7101L17.7262 14.4606C17.7262 15.4189 18.6632 15.9697 19.495 15.2387L22.6195 12.4354C23.2009 11.9228 23.1801 11.1412 22.6106 10.6405L19.4794 7.8306C18.6725 7.12796 17.7262 7.67569 17.7262 8.61491L17.7262 10.3782L12.6949 10.3782L12.6949 5.3203L14.4422 5.3203C15.4005 5.3203 15.9514 4.38018 15.2203 3.55509L12.4104 0.426984C11.8978-0.167739 11.1096-0.123365 10.6155 0.449171L7.81228 3.57372C7.10965 4.37397 7.65738 5.3203 8.5966 5.3203L10.363 5.3203L10.363 10.3782L5.32197 10.3782L5.32197 8.61491C5.32197 7.67569 4.36898 7.12796 3.56873 7.8306L0.44418 10.6339C-0.121695 11.1279-0.16607 11.9094 0.421993 12.4287Z" fill="#ffffff"/>
 </g>
</svg>
