<?xml version="1.0" encoding="UTF-8"?>
<!--Generator: Apple Native CoreSVG 232.5-->
<!DOCTYPE svg
PUBLIC "-//W3C//DTD SVG 1.1//EN"
       "http://www.w3.org/Graphics/SVG/1.1/DTD/svg11.dtd">
<svg version="1.1" xmlns="http://www.w3.org/2000/svg" xmlns:xlink="http://www.w3.org/1999/xlink" width="24.9706" height="20.3726">
 <g>
  <rect height="20.3726" opacity="0" width="24.9706" x="0" y="0"/>
  <path d="M0.246071 10.189C-0.22174 10.8348-0.011799 11.4499 0.784488 11.4499L2.19115 11.4499C2.79302 16.3896 7.10497 20.3691 12.3109 20.3691C15.1155 20.3691 17.6617 19.17 19.4449 17.3184C19.9832 16.8115 19.9748 16.1227 19.5784 15.7126C19.1696 15.2839 18.5207 15.2325 17.938 15.7429C16.533 17.2114 14.5323 18.1313 12.3109 18.1313C8.27665 18.1313 5.03344 15.1944 4.46397 11.4499L5.94389 11.4499C6.7242 11.4499 6.94346 10.8379 6.4792 10.1956L4.04327 6.7916C3.66555 6.26164 3.06948 6.26119 2.68821 6.7916ZM5.18352 3.05067C4.63852 3.55755 4.65008 4.23971 5.05003 4.64668C5.46194 5.07849 6.10104 5.13656 6.69037 4.62617C8.10201 3.16737 10.1028 2.23776 12.3109 2.23776C16.3384 2.23776 19.5847 5.17468 20.1609 8.92578L18.6654 8.92578C17.882 8.92578 17.6628 9.53117 18.127 10.1801L20.566 13.5841C20.9438 14.1141 21.5398 14.1145 21.9211 13.5841L24.3566 10.1867C24.828 9.53427 24.6145 8.92578 23.8182 8.92578L22.4337 8.92578C21.8221 3.98613 17.5199 0 12.3109 0C9.50626 0 6.96977 1.19239 5.18352 3.05067Z" fill="#ffffff"/>
 </g>
</svg>
