<?xml version="1.0" encoding="UTF-8"?>
<!--Generator: Apple Native CoreSVG 232.5-->
<!DOCTYPE svg
PUBLIC "-//W3C//DTD SVG 1.1//EN"
       "http://www.w3.org/Graphics/SVG/1.1/DTD/svg11.dtd">
<svg version="1.1" xmlns="http://www.w3.org/2000/svg" xmlns:xlink="http://www.w3.org/1999/xlink" width="19.0551" height="15.4107">
 <g>
  <rect height="15.4107" opacity="0" width="19.0551" x="0" y="0"/>
  <path d="M0 7.68183C0 8.01603 0.144687 8.34933 0.38658 8.58456L6.79332 14.9784C7.05074 15.2323 7.34588 15.3606 7.65167 15.3606C8.35378 15.3606 8.85264 14.8661 8.85264 14.2009C8.85264 13.8454 8.70265 13.5458 8.48118 13.3341L6.29368 11.1293L2.8302 7.96099L2.37358 8.69725L5.93113 8.89878L17.4493 8.89878C18.1931 8.89878 18.6937 8.40392 18.6937 7.68183C18.6937 6.95974 18.1931 6.46488 17.4493 6.46488L5.93113 6.46488L2.37358 6.66641L2.8302 7.41244L6.29368 4.2344L8.48118 2.02647C8.70265 1.80501 8.85264 1.51519 8.85264 1.1597C8.85264 0.494411 8.35378 0 7.65167 0C7.34588 0 7.05074 0.121601 6.78 0.395447L0.38658 6.7791C0.144687 7.01433 0 7.34763 0 7.68183Z" fill="#ffffff"/>
 </g>
</svg>
