<?xml version="1.0" encoding="UTF-8"?>
<!--Generator: Apple Native CoreSVG 232.5-->
<!DOCTYPE svg
PUBLIC "-//W3C//DTD SVG 1.1//EN"
       "http://www.w3.org/Graphics/SVG/1.1/DTD/svg11.dtd">
<svg version="1.1" xmlns="http://www.w3.org/2000/svg" xmlns:xlink="http://www.w3.org/1999/xlink" width="19.883" height="19.5346">
 <g>
  <rect height="19.5346" opacity="0" width="19.883" x="0" y="0"/>
  <path d="M1.08558 6.75528C1.79569 6.75528 2.17471 6.35983 2.17471 5.65328L2.17471 3.52249C2.17471 2.62487 2.63419 2.19424 3.48964 2.19424L5.66349 2.19424C6.37982 2.19424 6.7655 1.80546 6.7655 1.10201C6.7655 0.398552 6.37982 0.0195312 5.66349 0.0195312L3.30863 0.0195312C1.14961 0.0195312 0 1.15271 0 3.29486L0 5.65328C0 6.36294 0.388787 6.75528 1.08558 6.75528ZM18.4326 6.75528C19.1427 6.75528 19.5217 6.36294 19.5217 5.65328L19.5217 3.29486C19.5217 1.15271 18.3752 0.0195312 16.2131 0.0195312L13.8515 0.0195312C13.145 0.0195312 12.7562 0.398552 12.7562 1.10201C12.7562 1.80546 13.1481 2.19424 13.8515 2.19424L16.0254 2.19424C16.8742 2.19424 17.347 2.62487 17.347 3.52249L17.347 5.65328C17.347 6.36294 17.7358 6.75528 18.4326 6.75528ZM3.30863 19.5346L5.66349 19.5346C6.37982 19.5346 6.7655 19.1458 6.7655 18.449C6.7655 17.7455 6.3736 17.3598 5.66349 17.3598L3.48964 17.3598C2.63419 17.3598 2.17471 16.9292 2.17471 16.0285L2.17471 13.8977C2.17471 13.1845 1.78903 12.7957 1.08558 12.7957C0.379021 12.7957 0 13.1845 0 13.8977L0 16.2526C0 18.3983 1.14961 19.5346 3.30863 19.5346ZM13.8515 19.5346L16.2131 19.5346C18.3752 19.5346 19.5217 18.3916 19.5217 16.2526L19.5217 13.8977C19.5217 13.1845 19.136 12.7957 18.4326 12.7957C17.7291 12.7957 17.347 13.1876 17.347 13.8977L17.347 16.0285C17.347 16.9292 16.8742 17.3598 16.0254 17.3598L13.8515 17.3598C13.145 17.3598 12.7562 17.7455 12.7562 18.449C12.7562 19.1458 13.145 19.5346 13.8515 19.5346Z" fill="#ffffff"/>
  <path d="M5.59325 14.1148L13.9444 14.1148C14.9884 14.1148 15.5468 13.5635 15.5468 12.5324L15.5468 7.5438C15.5468 6.49623 14.9884 5.94494 13.9444 5.94494L12.8395 5.94494C12.471 5.94494 12.3476 5.89521 12.1106 5.64441L11.7319 5.25464C11.4785 4.99673 11.2277 4.87554 10.7545 4.87554L8.7632 4.87554C8.28333 4.87554 8.02943 4.99052 7.77597 5.25464L7.40042 5.64441C7.16029 5.88544 7.03689 5.94494 6.67466 5.94494L5.59325 5.94494C4.54568 5.94494 3.98773 6.49623 3.98773 7.5438L3.98773 12.5324C3.98773 13.5635 4.54568 14.1148 5.59325 14.1148ZM9.77572 12.7823C8.2287 12.7823 6.98532 11.5456 6.98532 9.98881C6.98532 8.44845 8.2287 7.21173 9.77572 7.21173C11.3156 7.21173 12.5461 8.44845 12.5461 9.98881C12.5461 11.5687 11.3156 12.7823 9.77572 12.7823ZM9.76906 11.7464C10.7346 11.7464 11.52 10.9744 11.52 9.98881C11.52 9.01657 10.7346 8.2379 9.76906 8.2379C8.80304 8.2379 8.0146 9.01657 8.0146 9.98881C8.0146 10.9744 8.80304 11.7464 9.76906 11.7464ZM13.5662 8.77864C13.1924 8.77864 12.8963 8.48257 12.8963 8.10527C12.8963 7.72486 13.1924 7.42568 13.5662 7.42568C13.9399 7.42568 14.2427 7.72486 14.2427 8.10527C14.2427 8.48257 13.9399 8.77864 13.5662 8.77864Z" fill="#ffffff"/>
 </g>
</svg>
