<?xml version="1.0" encoding="UTF-8"?>
<!--Generator: Apple Native CoreSVG 232.5-->
<!DOCTYPE svg
PUBLIC "-//W3C//DTD SVG 1.1//EN"
       "http://www.w3.org/Graphics/SVG/1.1/DTD/svg11.dtd">
<svg version="1.1" xmlns="http://www.w3.org/2000/svg" xmlns:xlink="http://www.w3.org/1999/xlink" width="24.6159" height="19.6331">
 <g>
  <rect height="19.6331" opacity="0" width="24.6159" x="0" y="0"/>
  <path d="M3.30863 19.0361L20.9428 19.0361C23.0983 19.0361 24.2545 17.8931 24.2545 15.7541L24.2545 5.4891C24.2545 3.35006 23.0983 2.21377 20.9428 2.21377L18.4635 2.21377C17.7013 2.21377 17.4421 2.08858 16.9499 1.59098L16.1841 0.786602C15.6617 0.255704 15.1388 0 14.1547 0L10.0532 0C9.06912 0 8.54623 0.255704 8.02379 0.786602L7.25496 1.59098C6.76272 2.08192 6.49994 2.21377 5.74133 2.21377L3.30863 2.21377C1.14961 2.21377 0 3.35006 0 5.4891L0 15.7541C0 17.8931 1.14961 19.0361 3.30863 19.0361ZM12.1257 15.8571C9.22574 15.8571 6.89306 13.5311 6.89306 10.6116C6.89306 7.69871 9.22574 5.37579 12.1257 5.37579C15.0319 5.37579 17.3548 7.69871 17.3548 10.6116C17.3548 13.5311 15.0253 15.8571 12.1257 15.8571ZM12.1257 13.9131C13.9503 13.9131 15.4175 12.4463 15.4175 10.6116C15.4175 8.78032 13.9503 7.31311 12.1257 7.31311C10.3074 7.31311 8.83038 8.78032 8.83038 10.6116C8.83038 12.4463 10.314 13.9131 12.1257 13.9131ZM17.9688 7.02712C17.9688 6.31959 18.5857 5.70259 19.3097 5.70259C20.0239 5.70259 20.6311 6.31959 20.6311 7.02712C20.6311 7.76085 20.027 8.34544 19.3097 8.35521C18.5795 8.35831 17.9688 7.76751 17.9688 7.02712Z" fill="#ffffff"/>
 </g>
</svg>
