<?xml version="1.0" encoding="UTF-8"?>
<!--Generator: Apple Native CoreSVG 232.5-->
<!DOCTYPE svg
PUBLIC "-//W3C//DTD SVG 1.1//EN"
       "http://www.w3.org/Graphics/SVG/1.1/DTD/svg11.dtd">
<svg version="1.1" xmlns="http://www.w3.org/2000/svg" xmlns:xlink="http://www.w3.org/1999/xlink" width="27.3054" height="21.0923">
 <g>
  <rect height="21.0923" opacity="0" width="27.3054" x="0" y="0"/>
  <path d="M6.47563 6.43225C4.09021 8.00337 2.59713 9.92505 2.59713 10.5541C2.59713 11.9032 7.37056 16.9425 13.4738 16.9425C14.553 16.9425 15.5915 16.7839 16.5667 16.5097L18.3127 18.2533C16.8516 18.7639 15.2265 19.0692 13.4738 19.0692C5.49453 19.0692 0 12.5557 0 10.5541C0 9.41176 1.79135 6.80241 4.81602 4.77489ZM26.9441 10.5541C26.9441 11.6965 25.1932 14.3087 22.1798 16.3382L20.5401 14.6995C22.8824 13.1743 24.347 11.3001 24.347 10.5541C24.347 9.4293 19.5571 4.17205 13.4738 4.17205C12.4152 4.17205 11.3966 4.33021 10.4399 4.60517L8.69131 2.85762C10.1436 2.3491 11.751 2.04527 13.4738 2.04527C21.5627 2.04527 26.9441 8.5522 26.9441 10.5541ZM15.3527 15.2973C14.7746 15.5322 14.1414 15.6596 13.4769 15.6596C10.6284 15.6596 8.35153 13.3308 8.35153 10.551C8.35153 9.88132 8.47739 9.24464 8.71097 8.66456ZM18.589 10.551C18.589 11.1993 18.4655 11.8231 18.2357 12.3965L11.6281 5.7927C12.1988 5.57051 12.8228 5.45184 13.4769 5.45184C16.3184 5.45184 18.589 7.70557 18.589 10.551Z" fill="#ffffff"/>
  <path d="M21.1259 19.2938C21.4344 19.612 21.9307 19.6254 22.2525 19.2938C22.5712 18.9622 22.561 18.4855 22.2525 18.1672L5.54818 1.47931C5.24324 1.16771 4.72701 1.16771 4.40875 1.47931C4.11002 1.78114 4.11002 2.30714 4.40875 2.60587Z" fill="#ffffff"/>
 </g>
</svg>
