<?xml version="1.0" encoding="UTF-8"?>
<!--Generator: Apple Native CoreSVG 232.5-->
<!DOCTYPE svg
PUBLIC "-//W3C//DTD SVG 1.1//EN"
       "http://www.w3.org/Graphics/SVG/1.1/DTD/svg11.dtd">
<svg version="1.1" xmlns="http://www.w3.org/2000/svg" xmlns:xlink="http://www.w3.org/1999/xlink" width="27.3054" height="17.0462">
 <g>
  <rect height="17.0462" opacity="0" width="27.3054" x="0" y="0"/>
  <path d="M13.4738 17.0462C21.5694 17.0462 26.9441 10.5326 26.9441 8.53107C26.9441 6.52912 21.5627 0.0221872 13.4738 0.0221872C5.50119 0.0221872 0 6.52912 0 8.53107C0 10.5326 5.49453 17.0462 13.4738 17.0462ZM13.4738 14.9194C7.37056 14.9194 2.59713 9.88008 2.59713 8.53107C2.59713 7.40623 7.37056 2.14897 13.4738 2.14897C19.5571 2.14897 24.347 7.40623 24.347 8.53107C24.347 9.88008 19.5571 14.9194 13.4738 14.9194ZM13.4769 13.6365C16.3184 13.6365 18.589 11.3077 18.589 8.52797C18.589 5.68249 16.3184 3.42876 13.4769 3.42876C10.6284 3.42876 8.35153 5.67939 8.35153 8.52797C8.35153 11.3077 10.6284 13.6365 13.4769 13.6365ZM13.4707 10.1518C12.5731 10.1518 11.8491 9.41537 11.8491 8.53107C11.8491 7.64011 12.5731 6.91652 13.4707 6.91652C14.371 6.91652 15.0981 7.64011 15.0981 8.53107C15.0981 9.41537 14.371 10.1518 13.4707 10.1518Z" fill="#ffffff"/>
 </g>
</svg>
