<?xml version="1.0" encoding="UTF-8"?>
<!--Generator: Apple Native CoreSVG 232.5-->
<!DOCTYPE svg
PUBLIC "-//W3C//DTD SVG 1.1//EN"
       "http://www.w3.org/Graphics/SVG/1.1/DTD/svg11.dtd">
<svg version="1.1" xmlns="http://www.w3.org/2000/svg" xmlns:xlink="http://www.w3.org/1999/xlink" width="21.8094" height="21.4414">
 <g>
  <rect height="21.4414" opacity="0" width="21.8094" x="0" y="0"/>
  <path d="M9.72996 21.4317L11.7181 21.4317C12.5664 21.4317 13.2388 20.8982 13.4332 20.0885L13.8128 18.4363L14.0321 18.3599L15.4748 19.2433C16.1903 19.6872 17.0377 19.574 17.6369 18.9686L19.0134 17.6049C19.6188 16.9871 19.7258 16.1393 19.2819 15.4367L18.3852 14.0068L18.4651 13.8039L20.1112 13.4115C20.9141 13.2108 21.4481 12.538 21.4481 11.6964L21.4481 9.77523C21.4481 8.93677 20.9208 8.25767 20.1112 8.06015L18.4784 7.66107L18.3919 7.44484L19.2886 6.01497C19.7356 5.31234 19.6255 4.47123 19.02 3.84672L17.6435 2.47642C17.051 1.87766 16.2037 1.75826 15.4882 2.20168L14.0454 3.08508L13.8128 2.99539L13.4332 1.34312C13.2388 0.530409 12.5664 0 11.7181 0L9.72996 0C8.88173 0 8.2093 0.536619 8.01488 1.34312L7.62867 2.99539L7.39601 3.08508L5.95993 2.20168C5.24443 1.76447 4.39045 1.87766 3.79789 2.47642L2.42805 3.84672C1.82262 4.47123 1.70588 5.31234 2.15951 6.01497L3.04957 7.44484L2.96965 7.66107L1.33691 8.06015C0.521092 8.26078 0 8.93677 0 9.77523L0 11.6964C0 12.538 0.533963 13.214 1.33691 13.4115L2.98297 13.8039L3.05623 14.0068L2.16617 15.4367C1.71254 16.1393 1.82928 16.9871 2.43471 17.6049L3.80455 18.9686C4.40377 19.574 5.25775 19.6872 5.97325 19.2433L7.40933 18.3599L7.62867 18.4363L8.01488 20.0885C8.2093 20.8982 8.88173 21.4317 9.72996 21.4317ZM10.0384 19.4735C9.87546 19.4735 9.79378 19.402 9.76759 19.2551L9.19407 16.8611C8.558 16.7271 7.93615 16.4648 7.42306 16.1328L5.319 17.4227C5.20492 17.5075 5.08417 17.4911 4.9732 17.3801L4.01649 16.4265C3.90907 16.3191 3.90862 16.205 3.98054 16.0807L5.27981 13.99C4.97757 13.4804 4.71124 12.871 4.56741 12.2349L2.17349 11.6712C2.02655 11.645 1.95509 11.5633 1.95509 11.4004L1.95509 10.0646C1.95509 9.89499 2.01989 9.82308 2.17349 9.79378L4.56075 9.22337C4.71079 8.56376 4.99444 7.93169 5.26649 7.46167L3.97388 5.37093C3.8953 5.23997 3.89265 5.12589 4.00007 5.01181L4.96654 4.07153C5.07751 3.96056 5.18494 3.94724 5.319 4.02892L7.40664 5.2989C7.86693 5.01173 8.54958 4.73032 9.19763 4.56741L9.76759 2.17659C9.79378 2.02966 9.87546 1.95819 10.0384 1.95819L11.4097 1.95819C11.5726 1.95819 11.6512 2.02966 11.6738 2.17659L12.2571 4.58073C12.9123 4.73388 13.511 4.99976 14.0281 5.30556L16.1131 4.03513C16.2569 3.95345 16.3546 3.96366 16.4753 4.07774L17.432 5.01802C17.5461 5.1321 17.5399 5.24619 17.4613 5.37714L16.1749 7.46167C16.4505 7.92859 16.7306 8.56376 16.8776 9.21716L19.2746 9.79378C19.4215 9.82308 19.493 9.89499 19.493 10.0646L19.493 11.4004C19.493 11.5633 19.4118 11.645 19.2746 11.6712L16.8709 12.2412C16.7271 12.8679 16.4674 13.4898 16.1616 13.99L17.4516 16.0745C17.5266 16.1988 17.5328 16.3129 17.4187 16.4203L16.4687 17.3739C16.3448 17.488 16.2339 17.4982 16.1131 17.4165L14.0246 16.1328C13.496 16.4648 12.9274 16.7147 12.2571 16.8611L11.6738 19.2551C11.6512 19.402 11.5726 19.4735 11.4097 19.4735ZM10.7225 14.4152C12.748 14.4152 14.4121 12.7511 14.4121 10.7158C14.4121 8.69701 12.748 7.03595 10.7225 7.03595C8.69701 7.03595 7.02308 8.69701 7.02308 10.7158C7.02308 12.7475 8.69035 14.4152 10.7225 14.4152ZM10.7225 12.6159C9.68546 12.6159 8.83221 11.7626 8.83221 10.7158C8.83221 9.68546 9.68856 8.83532 10.7225 8.83532C11.7431 8.83532 12.5932 9.69167 12.5932 10.7158C12.5932 11.756 11.7431 12.6159 10.7225 12.6159Z" fill="#ffffff"/>
 </g>
</svg>
