<?xml version="1.0" encoding="UTF-8"?>
<!--Generator: Apple Native CoreSVG 232.5-->
<!DOCTYPE svg
PUBLIC "-//W3C//DTD SVG 1.1//EN"
       "http://www.w3.org/Graphics/SVG/1.1/DTD/svg11.dtd">
<svg version="1.1" xmlns="http://www.w3.org/2000/svg" xmlns:xlink="http://www.w3.org/1999/xlink" width="31.9598" height="10.8998">
 <g>
  <rect height="10.8998" opacity="0" width="31.9598" x="0" y="0"/>
  <path d="M31.5985 0.987555C31.5985 1.66886 30.8204 2.09499 30.6033 3.35435L30.396 4.53734C29.6655 8.61561 27.197 10.89 23.5608 10.89C21.0737 10.89 18.7736 9.73772 17.5023 6.9063L16.4756 4.61269C16.3344 4.30415 16.088 4.13679 15.8026 4.13679C15.5105 4.13679 15.2641 4.30415 15.1296 4.61269L14.0993 6.9063C12.8316 9.73772 10.5314 10.89 8.04749 10.89C4.40148 10.89 1.93302 8.61561 1.20914 4.53734L1.00186 3.35435C0.78791 2.09499 0 1.66886 0 0.987555C0 0.405662 0.426991 0 1.23746 0C4.41255 0 7.36079 0.162461 9.08306 0.415918C12.6098 0.942812 14.1043 1.86564 15.8026 1.86564C17.4942 1.86564 18.9888 0.942812 22.5154 0.415918C24.2377 0.162461 27.1891 0 30.3677 0C31.1782 0 31.5985 0.405662 31.5985 0.987555ZM3.0821 3.65083C3.0821 6.78605 4.93087 8.98687 8.05726 8.98687C10.8183 8.98687 12.5188 7.04702 12.5188 4.53816C12.5188 2.94677 10.448 2.14108 5.98032 2.14108C3.91046 2.14108 3.0821 2.62185 3.0821 3.65083ZM19.0797 4.53816C19.0797 7.04702 20.79 8.98687 23.5412 8.98687C26.6676 8.98687 28.5195 6.78605 28.5195 3.65083C28.5195 2.62185 27.6947 2.14108 25.6182 2.14108C21.1536 2.14108 19.0797 2.94677 19.0797 4.53816Z" fill="#ffffff"/>
 </g>
</svg>
