<?xml version="1.0" encoding="UTF-8"?>
<!--Generator: Apple Native CoreSVG 232.5-->
<!DOCTYPE svg
PUBLIC "-//W3C//DTD SVG 1.1//EN"
       "http://www.w3.org/Graphics/SVG/1.1/DTD/svg11.dtd">
<svg version="1.1" xmlns="http://www.w3.org/2000/svg" xmlns:xlink="http://www.w3.org/1999/xlink" width="23.5688" height="18.4257">
 <g>
  <rect height="18.4257" opacity="0" width="23.5688" x="0" y="0"/>
  <path d="M22.183 14.5671L16.4101 9.15517C15.9804 8.75789 15.466 8.55902 14.9479 8.55902C14.4139 8.55902 13.9323 8.74146 13.4893 9.13875L9.08146 13.0778L7.28414 11.4563C6.87398 11.0883 6.42166 10.9028 5.96578 10.9028C5.50459 10.9028 5.11261 11.0786 4.70912 11.4465L1.05052 14.7065C1.09048 16.53 2.01499 17.4999 3.75576 17.4999L19.1789 17.4999C21.285 17.4999 22.3289 16.4701 22.183 14.5671ZM3.30863 18.4257L19.8988 18.4257C22.0645 18.4257 23.2075 17.2894 23.2075 15.1504L23.2075 3.2882C23.2075 1.14605 22.0645 0.0062108 19.8988 0.0062108L3.30863 0.0062108C1.14961 0.0062108 0 1.14605 0 3.2882L0 15.1504C0 17.2894 1.14961 18.4257 3.30863 18.4257ZM3.48964 16.251C2.63419 16.251 2.17471 15.8172 2.17471 14.9196L2.17471 3.51583C2.17471 2.61821 2.63419 2.18092 3.48964 2.18092L19.7178 2.18092C20.5666 2.18092 21.0327 2.61821 21.0327 3.51583L21.0327 14.9196C21.0327 15.8172 20.5666 16.251 19.7178 16.251Z" fill="#ffffff"/>
  <path d="M7.78778 9.45778C9.08171 9.45778 10.151 8.38847 10.151 7.08167C10.151 5.78775 9.08171 4.70867 7.78778 4.70867C6.48099 4.70867 5.41167 5.78775 5.41167 7.08167C5.41167 8.38847 6.48099 9.45778 7.78778 9.45778Z" fill="#ffffff"/>
 </g>
</svg>
