<?xml version="1.0" encoding="UTF-8"?>
<!--Generator: Apple Native CoreSVG 232.5-->
<!DOCTYPE svg
PUBLIC "-//W3C//DTD SVG 1.1//EN"
       "http://www.w3.org/Graphics/SVG/1.1/DTD/svg11.dtd">
<svg version="1.1" xmlns="http://www.w3.org/2000/svg" xmlns:xlink="http://www.w3.org/1999/xlink" width="13.8221" height="23.9449">
 <g>
  <rect height="23.9449" opacity="0" width="13.8221" x="0" y="0"/>
  <path d="M1.65035 9.76939L11.8207 9.76939L11.8207 8.13297L1.65035 8.13297ZM0 6.21437C0 9.89916 2.16846 11.0443 2.73446 17.3064C2.78283 17.8443 3.11789 18.1776 3.6691 18.1776L9.78859 18.1776C10.3465 18.1776 10.6815 17.8443 10.7299 17.3064C11.2928 11.0443 13.4608 9.90226 13.4608 6.21748C13.4608 2.69617 10.4588 0 6.72884 0C2.99886 0 0 2.69307 0 6.21437ZM1.88452 6.21437C1.88452 3.67702 4.10581 1.88452 6.72884 1.88452C9.34877 1.88763 11.5763 3.67702 11.5763 6.21437C11.5763 8.77799 9.81707 9.50416 9.00338 16.2962L4.46097 16.2962C3.64062 9.50416 1.88452 8.77799 1.88452 6.21437ZM3.56527 20.5602L9.89597 20.5602C10.2741 20.5602 10.5649 20.2535 10.5649 19.8909C10.5649 19.5287 10.2741 19.2251 9.89597 19.2251L3.56527 19.2251C3.18711 19.2251 2.88973 19.5287 2.88973 19.8909C2.88973 20.2535 3.18711 20.5602 3.56527 20.5602ZM6.72884 23.5134C8.29841 23.5134 9.53333 22.7557 9.64031 21.6109L3.80541 21.6109C3.88929 22.7557 5.14951 23.5134 6.72884 23.5134Z" fill="#ffffff"/>
 </g>
</svg>
