<?xml version="1.0" encoding="UTF-8"?>
<!--Generator: Apple Native CoreSVG 232.5-->
<!DOCTYPE svg
PUBLIC "-//W3C//DTD SVG 1.1//EN"
       "http://www.w3.org/Graphics/SVG/1.1/DTD/svg11.dtd">
<svg version="1.1" xmlns="http://www.w3.org/2000/svg" xmlns:xlink="http://www.w3.org/1999/xlink" width="15.9807" height="23.9343">
 <g>
  <rect height="23.9343" opacity="0" width="15.9807" x="0" y="0"/>
  <path d="M7.81148 23.9343C8.09554 23.9343 8.85097 22.4457 8.85097 21.1565L8.85097 15.5716L6.76844 15.5716L6.76844 21.1565C6.76844 22.4457 7.52386 23.9343 7.81148 23.9343ZM1.59082 16.5028L14.0286 16.5028C14.9913 16.5028 15.6194 15.8876 15.6194 14.9612C15.6194 11.9473 12.2362 9.03758 7.81148 9.03758C3.38324 9.03758 0 11.9473 0 14.9612C0 15.8876 0.628065 16.5028 1.59082 16.5028ZM2.08081 14.7176C1.90279 14.7176 1.82687 14.6124 1.85972 14.4077C2.11183 12.6654 4.44798 10.7708 7.81148 10.7708C11.1714 10.7708 13.5076 12.6654 13.7597 14.4077C13.7925 14.6124 13.7166 14.7176 13.5386 14.7176ZM1.24023 1.63131C1.24023 1.95488 1.37295 2.32728 1.64859 2.67795C2.14353 3.32338 3.28791 4.23203 4.55875 5.07363L4.19121 10.4845L6.07046 10.4845L6.44111 4.2485C6.45087 4.0652 6.41271 3.97289 6.26847 3.89922C5.04895 3.26527 4.09936 2.5505 3.89081 2.32414C3.80958 2.21892 3.86907 2.13148 3.97028 2.13148L11.6491 2.13148C11.7503 2.13148 11.8098 2.21892 11.7286 2.32414C11.52 2.5505 10.5705 3.26527 9.35093 3.89922C9.21336 3.97289 9.16853 4.0652 9.18496 4.2485L9.54894 10.4845L11.4282 10.4845L11.0607 5.07363C12.3382 4.23203 13.4759 3.32338 13.9708 2.67795C14.2531 2.32728 14.3858 1.95488 14.3858 1.63131C14.3858 0.948654 13.8616 0.450199 13.0973 0.450199L2.52877 0.450199C1.75777 0.450199 1.24023 0.948654 1.24023 1.63131Z" fill="#ffffff"/>
 </g>
</svg>
