<?xml version="1.0" encoding="UTF-8"?>
<!--Generator: Apple Native CoreSVG 232.5-->
<!DOCTYPE svg
PUBLIC "-//W3C//DTD SVG 1.1//EN"
       "http://www.w3.org/Graphics/SVG/1.1/DTD/svg11.dtd">
<svg version="1.1" xmlns="http://www.w3.org/2000/svg" xmlns:xlink="http://www.w3.org/1999/xlink" width="11.666" height="18.7881">
 <g>
  <rect height="18.7881" opacity="0" width="11.666" x="0" y="0"/>
  <path d="M5.12591 13.2786C5.90887 13.2786 6.34559 12.8223 6.43254 12.1197C6.43565 12.034 6.44186 11.9292 6.44807 11.8466C6.52971 10.7253 6.96695 10.241 8.56672 9.204C10.3116 8.08361 11.3046 6.79365 11.3046 4.93062C11.3046 1.93882 8.86594 0.165975 5.59596 0.165975C3.17156 0.165975 1.16964 1.22021 0.327143 2.99318C0.103432 3.45838 1.48609e-05 3.92623 1.48609e-05 4.34701C-0.00309054 5.10861 0.480656 5.63277 1.29684 5.63277C1.93463 5.63277 2.41883 5.29011 2.64295 4.70912C3.10684 3.18282 4.13235 2.58838 5.47171 2.58838C7.0841 2.58838 8.33912 3.51975 8.33912 4.95501C8.33912 6.24281 7.60351 6.92469 6.20445 7.84396C4.7582 8.80283 3.74695 9.85535 3.74695 11.4437C3.74695 11.5929 3.74695 11.7451 3.74695 11.8974C3.74695 12.7181 4.26265 13.2786 5.12591 13.2786ZM5.14764 18.7881C6.12764 18.7881 6.91678 18.0234 6.91678 17.0722C6.91678 16.1206 6.12764 15.3626 5.14764 15.3626C4.17786 15.3626 3.38828 16.1206 3.38828 17.0722C3.38828 18.0234 4.17786 18.7881 5.14764 18.7881Z" fill="#ffffff"/>
 </g>
</svg>
