<?xml version="1.0" encoding="UTF-8"?>
<!--Generator: Apple Native CoreSVG 232.5-->
<!DOCTYPE svg
PUBLIC "-//W3C//DTD SVG 1.1//EN"
       "http://www.w3.org/Graphics/SVG/1.1/DTD/svg11.dtd">
<svg version="1.1" xmlns="http://www.w3.org/2000/svg" xmlns:xlink="http://www.w3.org/1999/xlink" width="16.2734" height="15.928">
 <g>
  <rect height="15.928" opacity="0" width="16.2734" x="0" y="0"/>
  <path d="M0.358662 15.5678C0.846413 16.0458 1.67678 16.0365 2.13613 15.5771L7.95759 9.75569L13.7728 15.574C14.2446 16.0458 15.0661 16.0494 15.5472 15.5647C16.0283 15.077 16.0314 14.2688 15.5596 13.7939L9.74437 7.9689L15.5596 2.15366C16.0314 1.68188 16.0349 0.867046 15.5472 0.385955C15.0594-0.101795 14.2446-0.104901 13.7728 0.373534L7.95759 6.18878L2.13613 0.370428C1.67678-0.0924792 0.839752-0.111561 0.358662 0.38285C-0.119323 0.870601-0.110007 1.6912 0.349346 2.15055L6.1708 7.9689L0.349346 13.8001C-0.110007 14.2564-0.125984 15.0867 0.358662 15.5678Z" fill="#ffffff"/>
 </g>
</svg>
